<?xml version="1.0" encoding="UTF-8"?><svg id="Layer_1" xmlns="http://www.w3.org/2000/svg" viewBox="0 0 200 200"><defs><style>.cls-1{fill:#124d51;}</style></defs><path class="cls-1" d="M158.73,100.87l-19.64,8.87c-.55,.25-.74,.94-.38,1.43l12.59,17.53c.48,.67-.05,1.6-.88,1.51l-21.42-2.19c-.6-.06-1.11,.45-1.05,1.05l2.18,21.49c.08,.82-.84,1.36-1.51,.87l-17.46-12.62c-.49-.36-1.19-.17-1.44,.38l-8.84,19.69c-.34,.75-1.41,.75-1.75,0l-8.84-19.69c-.25-.55-.94-.74-1.44-.38l-17.46,12.62c-.67,.48-1.6-.05-1.51-.87l2.18-21.5c.06-.6-.45-1.11-1.05-1.05l-21.42,2.19c-.82,.08-1.36-.84-.88-1.51l12.59-17.52c.35-.49,.17-1.18-.38-1.43l-19.64-8.87c-.75-.34-.75-1.41,0-1.75l19.64-8.87c.55-.25,.74-.94,.38-1.43l-12.59-17.53c-.48-.67,.05-1.6,.88-1.51l21.42,2.19c.6,.06,1.11-.45,1.05-1.05l-2.18-21.49c-.08-.82,.84-1.36,1.51-.87l17.46,12.62c.49,.36,1.19,.17,1.44-.38l8.84-19.69c.34-.75,1.41-.75,1.75,0l8.84,19.69c.25,.55,.94,.74,1.44,.38l17.46-12.62c.67-.48,1.6,.05,1.51,.87l-2.18,21.49c-.06,.6,.45,1.11,1.05,1.05l21.42-2.19c.82-.08,1.36,.84,.88,1.51l-12.59,17.53c-.35,.49-.17,1.18,.38,1.43l19.64,8.87c.75,.34,.75,1.41,0,1.75Z"/></svg>