<?xml version="1.0" encoding="UTF-8"?><svg id="Layer_1" xmlns="http://www.w3.org/2000/svg" viewBox="0 0 500 500"><defs><style>.cls-1{fill:#edb8cd;}.cls-2{fill:#e5a22d;}.cls-3{fill:#9bd8e1;}</style></defs><path class="cls-1" d="M136.29,157.82c0,2.99-2.55,4.32-5.65,5.21-2.33,.89-2.88,3.1-3.99,6.31-4.87,14.07-17.72,22.71-36.22,22.71-25.37,0-43.31-17.06-43.31-41.21s19.38-41.65,42.2-41.65c8.53,0,15.62,2.33,20.83,5.21,1-2.21,2.77-3.54,5.1-3.54,6.2,0,10.52,10.19,10.52,19.61,0,7.53-2.99,10.63-6.98,10.63-3.21,0-6.31-3.1-9.08-7.31-3.99-6.65-10.97-12.19-19.94-12.19-11.63,0-18.5,9.08-18.5,23.15,0,17.72,10.86,33.79,24.59,33.79,7.42,0,11.85-4.21,11.85-9.86,0-3.32-1.77-4.99-4.99-5.54-3.54-.55-6.98-1.88-6.98-5.32,0-4.99,8.08-6.43,20.27-6.43s20.27,1.44,20.27,6.43Z"/><path class="cls-1" d="M138.61,162.7c0-17.95,14.07-30.35,34.56-30.35,18.5,0,30.9,12.3,30.9,29.47,0,18.06-14.29,30.24-34.34,30.24-18.72,0-31.13-12.18-31.13-29.35Zm44.31,9.19c0-11.41-6.76-30.35-15.28-30.35-4.43,0-7.76,3.77-7.76,10.97,0,11.52,6.53,30.35,15.29,30.35,4.54,0,7.75-3.99,7.75-10.97Z"/><path class="cls-1" d="M208.61,184.74c0-2.66,1.99-3.77,4.32-4.54,1.44-.55,1.66-3.1,1.66-6.87v-43.09c0-3.77-.78-7.2-2.33-7.87-3.33-1-5.21-2.44-5.21-4.76,0-1.66,.78-3.1,2.77-4.32,5.43-3.33,15.62-5.43,20.27-5.43,5.87,0,6.31,3.65,6.31,10.74,0,3.88-.11,8.64-.11,14.18v40.54c0,4.54,.22,6.31,1.55,6.87,2.55,.89,4.32,1.88,4.32,4.54,0,4.99-6.98,6.42-16.73,6.42s-16.84-1.55-16.84-6.42Z"/><path class="cls-1" d="M316.05,181.86c0,1.66-.78,2.99-2.66,4.21-5.1,3.33-14.4,5.43-18.61,5.43-5.65,0-6.09-3.65-6.09-10.63v-1.22c-3.43,6.98-10.64,12.19-19.39,12.19-13.07,0-22.38-11.85-22.38-28.91,0-19.27,11.41-30.36,27.25-30.36,5.87,0,10.52,1.66,13.85,3.88v-6.09c0-3.77-1.44-7.2-3.43-7.87-3.21-.89-5.32-2.55-5.32-4.76,0-1.88,.89-3.21,2.99-4.43,5.87-3.22,16.51-5.43,21.27-5.43,5.87,0,6.31,3.65,6.31,10.74,0,3.88-.11,8.53-.11,13.96v37.66c0,3.43,.55,6.76,1.99,7.2,2.88,.89,4.32,2.33,4.32,4.43Zm-27.69-22.38c-.11-13.4-3.88-18.28-9.31-18.28-6.09,0-9.53,5.76-9.53,18.72s3.76,18.61,9.19,18.61,9.64-5.65,9.64-19.05Z"/><path class="cls-1" d="M375.87,172.56c0,2.66-1.33,5.98-3.77,9.08-4.32,5.54-12.51,10.41-23.7,10.41-16.84,0-28.47-11.85-28.47-28.58,0-18.06,13.51-30.91,30.57-30.91,16.06,0,25.03,10.75,25.03,19.94,0,5.54-3.32,9.08-9.42,9.08h-26.7c1.66,7.87,7.2,12.52,15.73,12.52,5.76,0,9.75-1.99,13.07-4.43,1.33-.89,2.66-1.66,3.99-1.66,2.21,0,3.65,1.44,3.65,4.54Zm-37-17.95l11.3-.22c5.65-.22,8.08-2.22,8.08-5.65,0-4.1-2.99-7.65-8.08-7.65-6.43,0-10.75,5.54-11.3,13.51Z"/><path class="cls-1" d="M452.96,184.74c0,4.99-7.09,6.42-16.73,6.42s-16.29-1.55-16.29-6.31c0-2.66,1.88-3.65,3.88-4.43,1.44-1,1.55-3.77,1.55-7.09v-11.19c0-11.3-2.33-15.07-7.53-15.07-4.76,0-8.64,3.77-8.75,15.29v10.97c0,4.1,0,6.09,1.44,7.09,2.1,.89,3.99,1.77,3.99,4.43,0,4.88-6.65,6.31-16.29,6.31s-16.73-1.55-16.73-6.42c0-2.77,2.1-3.88,4.21-4.54,1.55-.78,1.66-3.43,1.66-6.87v-18.94c0-3.43-.56-6.76-1.99-7.2-2.99-.89-4.43-2.33-4.43-4.43,0-1.66,.78-2.99,2.77-4.21,5.09-3.33,14.95-5.43,19.27-5.43,5.76,0,6.09,3.65,6.09,10.63v1.66c3.54-7.31,10.52-12.85,20.16-12.85,10.74,0,17.83,7.09,17.83,20.72v20.05c0,4.21,0,6.09,1.55,6.87,2.33,.78,4.32,1.77,4.32,4.54Z"/><path class="cls-2" d="M120.34,274.5c0,15.73-13.52,26.58-31.35,26.58-7.97,0-14.95-2.32-19.83-4.76-.78,2.55-2.66,4.1-5.21,4.1-7.09,0-12.96-10.86-12.96-20.83,0-6.09,2.88-9.08,5.87-9.08s4.77,2.44,7.76,6.98c4.43,6.64,12.74,12.19,21.82,12.19,7.64,0,12.3-3.77,12.3-9.2s-4.54-7.64-16.17-10.19c-16.06-3.65-29.8-9.75-29.8-26.14,0-14.95,12.85-26.03,30.24-26.03,7.09,0,12.85,1.88,16.73,3.99,.89-2.1,2.66-3.77,5.21-3.77,6.87,0,12.3,11.41,12.3,19.17,0,4.87-2.88,7.97-5.87,7.97-3.33,0-5.32-2.99-6.98-5.32-3.88-5.87-9.3-10.63-17.94-10.63-6.98,0-11.97,3.54-11.97,8.64,0,5.43,4.76,7.64,15.62,10.08,16.17,3.54,30.24,9.75,30.24,26.25Z"/><path class="cls-2" d="M170.41,285.91c0,5.32-9.53,14.62-22.71,14.62-10.97,0-17.06-5.98-17.06-16.28l-.11-29.47h-.78c-2.44,0-6.09-.89-6.09-4.65s5.98-8.53,11.08-12.19c4.76-3.32,9.86-6.31,13.18-6.31,2.77,0,4.32,1.77,4.32,5.21v7.87h12.41c3.77,0,4.99,1.33,4.99,4.88s-1,4.98-4.99,4.98h-12.41v23.82c0,5.76,1.55,7.42,4.65,7.42,4.76,0,7.31-3.88,10.19-3.88,1.99,0,3.33,1.33,3.33,3.99Z"/><path class="cls-2" d="M235.87,289.79c0,4.65-4.88,10.3-13.74,10.3-6.31,0-10.97-2.88-13.51-8.53-3.77,5.76-10.08,9.31-17.95,9.31-9.86,0-17.72-5.87-17.72-16.17,0-11.63,9.97-18.06,23.6-18.06,3.99,0,7.97,.67,11.08,1.44v-6.76c0-5.65-.33-10.75-5.1-10.75-2.99,0-5.21,2.88-7.53,5.87-2.1,3.21-5.21,6.65-10.97,6.65-4.65,0-7.2-2.77-7.2-5.87,0-7.42,16.84-15.62,31.68-15.62,13.74,0,21.05,6.87,21.05,19.39v18.72c0,4.88,.78,7.53,5.43,8.75,.78,.22,.89,.56,.89,1.33Zm-27.69-10.3v-3.43c-1.33-1.11-3.55-2.1-6.2-2.1-4.76,0-7.65,2.99-7.65,7.87s2.44,7.64,6.31,7.64,7.54-3.1,7.54-9.97Z"/><path class="cls-2" d="M285.38,285.91c0,5.32-9.53,14.62-22.71,14.62-10.97,0-17.06-5.98-17.06-16.28l-.11-29.47h-.78c-2.44,0-6.09-.89-6.09-4.65s5.98-8.53,11.08-12.19c4.76-3.32,9.86-6.31,13.18-6.31,2.77,0,4.32,1.77,4.32,5.21v7.87h12.41c3.77,0,4.99,1.33,4.99,4.88s-1,4.98-4.99,4.98h-12.41v23.82c0,5.76,1.55,7.42,4.65,7.42,4.76,0,7.31-3.88,10.19-3.88,1.99,0,3.33,1.33,3.33,3.99Z"/><path class="cls-2" d="M343.31,281.59c0,2.66-1.33,5.98-3.77,9.08-4.32,5.54-12.51,10.41-23.7,10.41-16.84,0-28.47-11.85-28.47-28.58,0-18.06,13.51-30.91,30.57-30.91,16.06,0,25.03,10.75,25.03,19.94,0,5.54-3.32,9.08-9.42,9.08h-26.7c1.66,7.87,7.2,12.52,15.73,12.52,5.76,0,9.75-1.99,13.07-4.43,1.33-.89,2.66-1.66,3.99-1.66,2.21,0,3.65,1.44,3.65,4.54Zm-37-17.95l11.3-.22c5.65-.22,8.08-2.22,8.08-5.65,0-4.1-2.99-7.65-8.08-7.65-6.43,0-10.75,5.54-11.3,13.51Z"/><path class="cls-3" d="M128.15,386.41c0,9.08-6.87,21.49-13.51,21.49-1.99,0-3.66-.89-4.65-2.33-5.1,2.55-11.41,4.54-18.83,4.54-20.94,0-39.88-18.17-39.88-41.43s18.28-41.43,41.32-41.43c8.08,0,14.73,2.1,19.83,4.99,.89-2.11,2.55-3.43,4.76-3.43,6.31,0,10.63,11.19,10.63,20.6,0,8.42-3.88,11.19-6.76,11.19-4.21,0-5.98-3.1-8.86-8.2-4.32-7.64-11.74-12.96-19.83-13.07-11.19,0-17.06,8.86-17.06,21.05,0,17.06,11.63,33.12,25.81,33.12,6.09,0,11.63-2.33,15.62-7.75,1.99-2.66,3.54-6.2,6.65-6.2s4.76,2.77,4.76,6.87Z"/><path class="cls-3" d="M133.24,380.77c0-17.95,14.07-30.35,34.56-30.35,18.5,0,30.9,12.3,30.9,29.47,0,18.06-14.29,30.24-34.34,30.24-18.72,0-31.13-12.18-31.13-29.35Zm44.31,9.19c0-11.41-6.76-30.35-15.28-30.35-4.43,0-7.76,3.77-7.76,10.97,0,11.52,6.53,30.35,15.29,30.35,4.54,0,7.75-3.99,7.75-10.97Z"/><path class="cls-3" d="M220.41,339.34c0,7.97,7.64,10.97,11.3,16.06h7.31c3.99,0,5.21,1.44,5.21,4.87s-1.22,4.99-5.21,4.99h-5.76v25.59c0,4.76,1.11,6.53,2.77,7.09,3.65,1.11,5.87,2.1,5.87,4.87,0,5.1-8.2,6.42-19.5,6.42s-18.61-1.55-18.61-6.42c0-2.77,2.21-3.88,5.21-4.87,1.55-.45,2.55-3.1,2.55-6.76v-25.92h-3.54c-4.21,0-5.43-1.44-5.43-4.99s1.22-4.87,5.43-4.87h2.44c-1.88-3.22-4.76-6.87-4.76-12.85,0-9.31,7.87-17.39,21.49-17.39,11.52,0,19.61,6.31,19.61,14.51,0,5.21-3.21,8.42-7.97,8.42s-7.2-2.88-8.53-6.42c-1.33-3.33-2.22-7.53-5.87-7.53-2.55,0-3.99,2.21-3.99,5.21Z"/><path class="cls-3" d="M264.49,339.34c0,7.97,7.64,10.97,11.3,16.06h7.31c3.99,0,5.21,1.44,5.21,4.87s-1.22,4.99-5.21,4.99h-5.76v25.59c0,4.76,1.11,6.53,2.77,7.09,3.65,1.11,5.87,2.1,5.87,4.87,0,5.1-8.2,6.42-19.5,6.42s-18.61-1.55-18.61-6.42c0-2.77,2.21-3.88,5.21-4.87,1.55-.45,2.55-3.1,2.55-6.76v-25.92h-3.54c-4.21,0-5.43-1.44-5.43-4.99s1.22-4.87,5.43-4.87h2.44c-1.88-3.22-4.76-6.87-4.76-12.85,0-9.31,7.87-17.39,21.49-17.39,11.52,0,19.61,6.31,19.61,14.51,0,5.21-3.21,8.42-7.97,8.42s-7.2-2.88-8.53-6.42c-1.33-3.33-2.22-7.53-5.87-7.53-2.55,0-3.99,2.21-3.99,5.21Z"/><path class="cls-3" d="M346.46,390.63c0,2.66-1.33,5.98-3.77,9.08-4.32,5.54-12.51,10.41-23.7,10.41-16.84,0-28.47-11.85-28.47-28.58,0-18.06,13.51-30.91,30.57-30.91,16.06,0,25.03,10.75,25.03,19.94,0,5.54-3.32,9.08-9.42,9.08h-26.7c1.66,7.87,7.2,12.52,15.73,12.52,5.76,0,9.75-1.99,13.07-4.43,1.33-.89,2.66-1.66,3.99-1.66,2.21,0,3.65,1.44,3.65,4.54Zm-37-17.95l11.3-.22c5.65-.22,8.08-2.22,8.08-5.65,0-4.1-2.99-7.65-8.08-7.65-6.43,0-10.75,5.54-11.3,13.51Z"/><path class="cls-3" d="M407.27,390.63c0,2.66-1.33,5.98-3.77,9.08-4.32,5.54-12.51,10.41-23.7,10.41-16.84,0-28.47-11.85-28.47-28.58,0-18.06,13.51-30.91,30.57-30.91,16.06,0,25.03,10.75,25.03,19.94,0,5.54-3.32,9.08-9.42,9.08h-26.7c1.66,7.87,7.2,12.52,15.73,12.52,5.76,0,9.75-1.99,13.07-4.43,1.33-.89,2.66-1.66,3.99-1.66,2.21,0,3.65,1.44,3.65,4.54Zm-37-17.95l11.3-.22c5.65-.22,8.08-2.22,8.08-5.65,0-4.1-2.99-7.65-8.08-7.65-6.43,0-10.75,5.54-11.3,13.51Z"/><path class="cls-1" d="M136.29,157.82c0,2.99-2.55,4.32-5.65,5.21-2.33,.89-2.88,3.1-3.99,6.31-4.87,14.07-17.72,22.71-36.22,22.71-25.37,0-43.31-17.06-43.31-41.21s19.38-41.65,42.2-41.65c8.53,0,15.62,2.33,20.83,5.21,1-2.21,2.77-3.54,5.1-3.54,6.2,0,10.52,10.19,10.52,19.61,0,7.53-2.99,10.63-6.98,10.63-3.21,0-6.31-3.1-9.08-7.31-3.99-6.65-10.97-12.19-19.94-12.19-11.63,0-18.5,9.08-18.5,23.15,0,17.72,10.86,33.79,24.59,33.79,7.42,0,11.85-4.21,11.85-9.86,0-3.32-1.77-4.99-4.99-5.54-3.54-.55-6.98-1.88-6.98-5.32,0-4.99,8.08-6.43,20.27-6.43s20.27,1.44,20.27,6.43Z"/><path class="cls-1" d="M138.61,162.7c0-17.95,14.07-30.35,34.56-30.35,18.5,0,30.9,12.3,30.9,29.47,0,18.06-14.29,30.24-34.34,30.24-18.72,0-31.13-12.18-31.13-29.35Zm44.31,9.19c0-11.41-6.76-30.35-15.28-30.35-4.43,0-7.76,3.77-7.76,10.97,0,11.52,6.53,30.35,15.29,30.35,4.54,0,7.75-3.99,7.75-10.97Z"/><path class="cls-1" d="M208.61,184.74c0-2.66,1.99-3.77,4.32-4.54,1.44-.55,1.66-3.1,1.66-6.87v-43.09c0-3.77-.78-7.2-2.33-7.87-3.33-1-5.21-2.44-5.21-4.76,0-1.66,.78-3.1,2.77-4.32,5.43-3.33,15.62-5.43,20.27-5.43,5.87,0,6.31,3.65,6.31,10.74,0,3.88-.11,8.64-.11,14.18v40.54c0,4.54,.22,6.31,1.55,6.87,2.55,.89,4.32,1.88,4.32,4.54,0,4.99-6.98,6.42-16.73,6.42s-16.84-1.55-16.84-6.42Z"/><path class="cls-1" d="M316.05,181.86c0,1.66-.78,2.99-2.66,4.21-5.1,3.33-14.4,5.43-18.61,5.43-5.65,0-6.09-3.65-6.09-10.63v-1.22c-3.43,6.98-10.64,12.19-19.39,12.19-13.07,0-22.38-11.85-22.38-28.91,0-19.27,11.41-30.36,27.25-30.36,5.87,0,10.52,1.66,13.85,3.88v-6.09c0-3.77-1.44-7.2-3.43-7.87-3.21-.89-5.32-2.55-5.32-4.76,0-1.88,.89-3.21,2.99-4.43,5.87-3.22,16.51-5.43,21.27-5.43,5.87,0,6.31,3.65,6.31,10.74,0,3.88-.11,8.53-.11,13.96v37.66c0,3.43,.55,6.76,1.99,7.2,2.88,.89,4.32,2.33,4.32,4.43Zm-27.69-22.38c-.11-13.4-3.88-18.28-9.31-18.28-6.09,0-9.53,5.76-9.53,18.72s3.76,18.61,9.19,18.61,9.64-5.65,9.64-19.05Z"/><path class="cls-1" d="M375.87,172.56c0,2.66-1.33,5.98-3.77,9.08-4.32,5.54-12.51,10.41-23.7,10.41-16.84,0-28.47-11.85-28.47-28.58,0-18.06,13.51-30.91,30.57-30.91,16.06,0,25.03,10.75,25.03,19.94,0,5.54-3.32,9.08-9.42,9.08h-26.7c1.66,7.87,7.2,12.52,15.73,12.52,5.76,0,9.75-1.99,13.07-4.43,1.33-.89,2.66-1.66,3.99-1.66,2.21,0,3.65,1.44,3.65,4.54Zm-37-17.95l11.3-.22c5.65-.22,8.08-2.22,8.08-5.65,0-4.1-2.99-7.65-8.08-7.65-6.43,0-10.75,5.54-11.3,13.51Z"/><path class="cls-1" d="M452.96,184.74c0,4.99-7.09,6.42-16.73,6.42s-16.29-1.55-16.29-6.31c0-2.66,1.88-3.65,3.88-4.43,1.44-1,1.55-3.77,1.55-7.09v-11.19c0-11.3-2.33-15.07-7.53-15.07-4.76,0-8.64,3.77-8.75,15.29v10.97c0,4.1,0,6.09,1.44,7.09,2.1,.89,3.99,1.77,3.99,4.43,0,4.88-6.65,6.31-16.29,6.31s-16.73-1.55-16.73-6.42c0-2.77,2.1-3.88,4.21-4.54,1.55-.78,1.66-3.43,1.66-6.87v-18.94c0-3.43-.56-6.76-1.99-7.2-2.99-.89-4.43-2.33-4.43-4.43,0-1.66,.78-2.99,2.77-4.21,5.09-3.33,14.95-5.43,19.27-5.43,5.76,0,6.09,3.65,6.09,10.63v1.66c3.54-7.31,10.52-12.85,20.16-12.85,10.74,0,17.83,7.09,17.83,20.72v20.05c0,4.21,0,6.09,1.55,6.87,2.33,.78,4.32,1.77,4.32,4.54Z"/><path class="cls-2" d="M120.34,274.5c0,15.73-13.52,26.58-31.35,26.58-7.97,0-14.95-2.32-19.83-4.76-.78,2.55-2.66,4.1-5.21,4.1-7.09,0-12.96-10.86-12.96-20.83,0-6.09,2.88-9.08,5.87-9.08s4.77,2.44,7.76,6.98c4.43,6.64,12.74,12.19,21.82,12.19,7.64,0,12.3-3.77,12.3-9.2s-4.54-7.64-16.17-10.19c-16.06-3.65-29.8-9.75-29.8-26.14,0-14.95,12.85-26.03,30.24-26.03,7.09,0,12.85,1.88,16.73,3.99,.89-2.1,2.66-3.77,5.21-3.77,6.87,0,12.3,11.41,12.3,19.17,0,4.87-2.88,7.97-5.87,7.97-3.33,0-5.32-2.99-6.98-5.32-3.88-5.87-9.3-10.63-17.94-10.63-6.98,0-11.97,3.54-11.97,8.64,0,5.43,4.76,7.64,15.62,10.08,16.17,3.54,30.24,9.75,30.24,26.25Z"/><path class="cls-2" d="M170.41,285.91c0,5.32-9.53,14.62-22.71,14.62-10.97,0-17.06-5.98-17.06-16.28l-.11-29.47h-.78c-2.44,0-6.09-.89-6.09-4.65s5.98-8.53,11.08-12.19c4.76-3.32,9.86-6.31,13.18-6.31,2.77,0,4.32,1.77,4.32,5.21v7.87h12.41c3.77,0,4.99,1.33,4.99,4.88s-1,4.98-4.99,4.98h-12.41v23.82c0,5.76,1.55,7.42,4.65,7.42,4.76,0,7.31-3.88,10.19-3.88,1.99,0,3.33,1.33,3.33,3.99Z"/><path class="cls-2" d="M235.87,289.79c0,4.65-4.88,10.3-13.74,10.3-6.31,0-10.97-2.88-13.51-8.53-3.77,5.76-10.08,9.31-17.95,9.31-9.86,0-17.72-5.87-17.72-16.17,0-11.63,9.97-18.06,23.6-18.06,3.99,0,7.97,.67,11.08,1.44v-6.76c0-5.65-.33-10.75-5.1-10.75-2.99,0-5.21,2.88-7.53,5.87-2.1,3.21-5.21,6.65-10.97,6.65-4.65,0-7.2-2.77-7.2-5.87,0-7.42,16.84-15.62,31.68-15.62,13.74,0,21.05,6.87,21.05,19.39v18.72c0,4.88,.78,7.53,5.43,8.75,.78,.22,.89,.56,.89,1.33Zm-27.69-10.3v-3.43c-1.33-1.11-3.55-2.1-6.2-2.1-4.76,0-7.65,2.99-7.65,7.87s2.44,7.64,6.31,7.64,7.54-3.1,7.54-9.97Z"/><path class="cls-2" d="M285.38,285.91c0,5.32-9.53,14.62-22.71,14.62-10.97,0-17.06-5.98-17.06-16.28l-.11-29.47h-.78c-2.44,0-6.09-.89-6.09-4.65s5.98-8.53,11.08-12.19c4.76-3.32,9.86-6.31,13.18-6.31,2.77,0,4.32,1.77,4.32,5.21v7.87h12.41c3.77,0,4.99,1.33,4.99,4.88s-1,4.98-4.99,4.98h-12.41v23.82c0,5.76,1.55,7.42,4.65,7.42,4.76,0,7.31-3.88,10.19-3.88,1.99,0,3.33,1.33,3.33,3.99Z"/><path class="cls-2" d="M343.31,281.59c0,2.66-1.33,5.98-3.77,9.08-4.32,5.54-12.51,10.41-23.7,10.41-16.84,0-28.47-11.85-28.47-28.58,0-18.06,13.51-30.91,30.57-30.91,16.06,0,25.03,10.75,25.03,19.94,0,5.54-3.32,9.08-9.42,9.08h-26.7c1.66,7.87,7.2,12.52,15.73,12.52,5.76,0,9.75-1.99,13.07-4.43,1.33-.89,2.66-1.66,3.99-1.66,2.21,0,3.65,1.44,3.65,4.54Zm-37-17.95l11.3-.22c5.65-.22,8.08-2.22,8.08-5.65,0-4.1-2.99-7.65-8.08-7.65-6.43,0-10.75,5.54-11.3,13.51Z"/><path class="cls-3" d="M128.15,386.41c0,9.08-6.87,21.49-13.51,21.49-1.99,0-3.66-.89-4.65-2.33-5.1,2.55-11.41,4.54-18.83,4.54-20.94,0-39.88-18.17-39.88-41.43s18.28-41.43,41.32-41.43c8.08,0,14.73,2.1,19.83,4.99,.89-2.11,2.55-3.43,4.76-3.43,6.31,0,10.63,11.19,10.63,20.6,0,8.42-3.88,11.19-6.76,11.19-4.21,0-5.98-3.1-8.86-8.2-4.32-7.64-11.74-12.96-19.83-13.07-11.19,0-17.06,8.86-17.06,21.05,0,17.06,11.63,33.12,25.81,33.12,6.09,0,11.63-2.33,15.62-7.75,1.99-2.66,3.54-6.2,6.65-6.2s4.76,2.77,4.76,6.87Z"/><path class="cls-3" d="M133.24,380.77c0-17.95,14.07-30.35,34.56-30.35,18.5,0,30.9,12.3,30.9,29.47,0,18.06-14.29,30.24-34.34,30.24-18.72,0-31.13-12.18-31.13-29.35Zm44.31,9.19c0-11.41-6.76-30.35-15.28-30.35-4.43,0-7.76,3.77-7.76,10.97,0,11.52,6.53,30.35,15.29,30.35,4.54,0,7.75-3.99,7.75-10.97Z"/><path class="cls-3" d="M220.41,339.34c0,7.97,7.64,10.97,11.3,16.06h7.31c3.99,0,5.21,1.44,5.21,4.87s-1.22,4.99-5.21,4.99h-5.76v25.59c0,4.76,1.11,6.53,2.77,7.09,3.65,1.11,5.87,2.1,5.87,4.87,0,5.1-8.2,6.42-19.5,6.42s-18.61-1.55-18.61-6.42c0-2.77,2.21-3.88,5.21-4.87,1.55-.45,2.55-3.1,2.55-6.76v-25.92h-3.54c-4.21,0-5.43-1.44-5.43-4.99s1.22-4.87,5.43-4.87h2.44c-1.88-3.22-4.76-6.87-4.76-12.85,0-9.31,7.87-17.39,21.49-17.39,11.52,0,19.61,6.31,19.61,14.51,0,5.21-3.21,8.42-7.97,8.42s-7.2-2.88-8.53-6.42c-1.33-3.33-2.22-7.53-5.87-7.53-2.55,0-3.99,2.21-3.99,5.21Z"/><path class="cls-3" d="M264.49,339.34c0,7.97,7.64,10.97,11.3,16.06h7.31c3.99,0,5.21,1.44,5.21,4.87s-1.22,4.99-5.21,4.99h-5.76v25.59c0,4.76,1.11,6.53,2.77,7.09,3.65,1.11,5.87,2.1,5.87,4.87,0,5.1-8.2,6.42-19.5,6.42s-18.61-1.55-18.61-6.42c0-2.77,2.21-3.88,5.21-4.87,1.55-.45,2.55-3.1,2.55-6.76v-25.92h-3.54c-4.21,0-5.43-1.44-5.43-4.99s1.22-4.87,5.43-4.87h2.44c-1.88-3.22-4.76-6.87-4.76-12.85,0-9.31,7.87-17.39,21.49-17.39,11.52,0,19.61,6.31,19.61,14.51,0,5.21-3.21,8.42-7.97,8.42s-7.2-2.88-8.53-6.42c-1.33-3.33-2.22-7.53-5.87-7.53-2.55,0-3.99,2.21-3.99,5.21Z"/><path class="cls-3" d="M346.46,390.63c0,2.66-1.33,5.98-3.77,9.08-4.32,5.54-12.51,10.41-23.7,10.41-16.84,0-28.47-11.85-28.47-28.58,0-18.06,13.51-30.91,30.57-30.91,16.06,0,25.03,10.75,25.03,19.94,0,5.54-3.32,9.08-9.42,9.08h-26.7c1.66,7.87,7.2,12.52,15.73,12.52,5.76,0,9.75-1.99,13.07-4.43,1.33-.89,2.66-1.66,3.99-1.66,2.21,0,3.65,1.44,3.65,4.54Zm-37-17.95l11.3-.22c5.65-.22,8.08-2.22,8.08-5.65,0-4.1-2.99-7.65-8.08-7.65-6.43,0-10.75,5.54-11.3,13.51Z"/><path class="cls-3" d="M407.27,390.63c0,2.66-1.33,5.98-3.77,9.08-4.32,5.54-12.51,10.41-23.7,10.41-16.84,0-28.47-11.85-28.47-28.58,0-18.06,13.51-30.91,30.57-30.91,16.06,0,25.03,10.75,25.03,19.94,0,5.54-3.32,9.08-9.42,9.08h-26.7c1.66,7.87,7.2,12.52,15.73,12.52,5.76,0,9.75-1.99,13.07-4.43,1.33-.89,2.66-1.66,3.99-1.66,2.21,0,3.65,1.44,3.65,4.54Zm-37-17.95l11.3-.22c5.65-.22,8.08-2.22,8.08-5.65,0-4.1-2.99-7.65-8.08-7.65-6.43,0-10.75,5.54-11.3,13.51Z"/></svg>