<?xml version="1.0" encoding="UTF-8"?><svg id="Layer_1" xmlns="http://www.w3.org/2000/svg" viewBox="0 0 500 500"><defs><style>.cls-1{fill:#f2ecdf;stroke-miterlimit:10;}.cls-1,.cls-2{stroke:#124d51;stroke-width:5.83px;}.cls-3{fill:#e88eae;}.cls-4{fill:#e5a22d;}.cls-5{fill:#9bd8e1;}.cls-6{fill:#124d51;}.cls-2,.cls-7{fill:none;stroke-linecap:round;stroke-linejoin:round;}.cls-7{stroke:#f2ecdf;stroke-width:3.5px;}</style></defs><g><path class="cls-4" d="M64.23,341.4c-1.39,.44-2.39-.54-3.27-1.86-.76-.95-1.88-.88-3.54-.92-7.29-.17-13.24-4.88-16-13.5-3.78-11.83,1.49-22.75,12.76-26.35,11.78-3.77,22.31,2.83,25.72,13.47,1.27,3.98,1.25,7.64,.68,10.49,1.18,.14,2.06,.76,2.41,1.85,.92,2.89-3.19,6.43-7.57,7.83-3.51,1.13-5.41,.2-6-1.66-.48-1.5,.5-3.41,2.05-5.33,2.5-2.85,4.05-6.93,2.71-11.12-1.73-5.43-7-7.27-13.56-5.17-8.27,2.64-14.14,10.1-12.09,16.51,1.11,3.46,3.73,4.89,6.37,4.06,1.55-.5,2.06-1.57,1.84-3.16-.27-1.73-.16-3.54,1.44-4.05,2.32-.75,4.2,2.81,6.02,8.5,1.82,5.68,2.35,9.67,.03,10.41Z"/><path class="cls-4" d="M63.55,344.14c7.66-4.31,16.33-1.29,21.25,7.46,4.44,7.89,2.17,16.15-5.16,20.26-7.71,4.33-16.34,1.16-21.15-7.39-4.49-7.99-2.27-16.21,5.06-20.33Zm6.71,21.12c4.87-2.74,11.33-10.17,9.28-13.81-1.06-1.89-3.47-2.4-6.54-.68-4.92,2.77-11.39,10.07-9.28,13.81,1.09,1.94,3.56,2.35,6.54,.68Z"/><path class="cls-4" d="M72.8,380.9c1.04-.79,2.06-.34,3.05,.34,.64,.4,1.7-.27,3.17-1.38l16.84-12.73c1.47-1.11,2.59-2.43,2.39-3.23-.59-1.6-.59-2.75,.32-3.44,.65-.49,1.44-.61,2.51-.19,2.9,1.14,6.73,4.5,8.11,6.32,1.73,2.29,.44,3.54-2.33,5.64-1.51,1.14-3.41,2.51-5.57,4.15l-15.84,11.97c-1.77,1.34-2.4,1.95-2.22,2.64,.4,1.25,.54,2.24-.5,3.03-1.95,1.47-4.57-.83-7.45-4.64-2.95-3.89-4.37-7.04-2.46-8.47Z"/><path class="cls-4" d="M110.24,420.86c-.58,.58-1.3,.77-2.38,.53-2.91-.62-6.87-3.11-8.33-4.57-1.95-1.96-.84-3.37,1.58-5.79l.42-.42c-3.61,1.22-7.91,.53-10.93-2.5-4.53-4.53-3.64-11.86,2.27-17.77,6.68-6.67,14.47-6.55,19.96-1.06,2.03,2.03,3.06,4.22,3.45,6.14l2.11-2.11c1.3-1.31,1.99-2.99,1.53-3.91-.8-1.42-.96-2.73-.19-3.49,.65-.65,1.42-.8,2.57-.5,3.14,.92,7.59,3.84,9.25,5.49,2.03,2.04,.91,3.45-1.54,5.91-1.35,1.34-3,2.91-4.88,4.79l-13.06,13.04c-1.18,1.19-2.15,2.53-1.8,3.18,.69,1.31,.69,2.31-.04,3.03Zm-1.83-17.34c4.61-4.68,4.99-7.67,3.12-9.55-2.11-2.11-5.3-1.31-9.79,3.18-4.61,4.6-5.15,7.74-3.27,9.63,1.92,1.92,5.29,1.38,9.94-3.26Z"/><path class="cls-4" d="M138.84,435.82c-.75,1.06-2.23,2-4.08,2.54-3.3,.98-7.95,.58-12.41-2.6-6.71-4.79-7.97-12.83-3.2-19.49,5.14-7.2,14.18-8.47,20.98-3.61,6.4,4.57,6.91,11.4,4.29,15.07-1.57,2.2-3.91,2.67-6.34,.94l-10.63-7.61c-1.58,3.61-.69,7.04,2.7,9.46,2.29,1.64,4.45,1.98,6.47,1.96,.78,.03,1.53,.1,2.06,.47,.88,.63,1.04,1.61,.16,2.85Zm-9.63-17.68l4.57,3.13c2.32,1.52,3.85,1.42,4.83,.05,1.17-1.63,.98-3.9-1.04-5.35-2.56-1.83-5.86-.85-8.35,2.17Z"/><path class="cls-4" d="M171.63,459.06c-1.06,2.19-4.5,1.32-8.74-.74-4.39-2.12-6.84-4.15-5.83-6.25,.57-1.17,1.61-1.21,2.65-1.12,.85-.14,1.49-1.33,2.2-2.79l2.38-4.93c2.41-4.98,2.19-7.13-.11-8.24-2.1-1.02-4.61-.18-7.12,4.87l-2.34,4.83c-.87,1.81-1.3,2.68-.88,3.43,.74,.84,1.38,1.63,.81,2.8-1.04,2.15-4.28,1.37-8.52-.69-4.39-2.12-7.04-4.25-6.01-6.39,.59-1.22,1.76-1.26,2.82-1.11,.85,0,1.47-1.16,2.2-2.67l4.04-8.35c.73-1.51,1.2-3.1,.66-3.6-1.13-1.03-1.46-1.97-1.01-2.9,.35-.74,.98-1.15,2.12-1.27,2.95-.38,7.75,.8,9.65,1.72,2.54,1.23,1.91,2.91,.42,5.98l-.36,.74c3.12-2.47,7.38-3.42,11.63-1.36,4.73,2.29,6.35,6.93,3.44,12.93l-4.27,8.84c-.9,1.86-1.3,2.69-.78,3.36,.86,.84,1.53,1.7,.94,2.93Z"/><path class="cls-4" d="M223.34,462.28c-1.58,7.54-9.14,11.39-17.69,9.61-3.82-.8-6.93-2.61-9.03-4.27-.63,1.14-1.68,1.7-2.91,1.44-3.4-.71-5.13-6.5-4.13-11.28,.61-2.92,2.29-4.07,3.72-3.77,1.49,.31,2.04,1.65,3.02,4.12,1.46,3.63,4.89,7.12,9.24,8.02,3.66,.77,6.27-.57,6.82-3.17,.54-2.6-1.41-4.12-6.73-6.51-7.34-3.36-13.31-7.65-11.67-15.51,1.5-7.17,8.77-11.19,17.11-9.45,3.4,.71,5.97,2.19,7.62,3.59,.63-.92,1.65-1.54,2.87-1.28,3.29,.69,4.75,6.7,3.98,10.42-.49,2.33-2.18,3.53-3.61,3.23-1.59-.33-2.25-1.97-2.81-3.24-1.27-3.21-3.4-6.03-7.54-6.9-3.34-.7-6.09,.51-6.6,2.95-.54,2.6,1.52,4.14,6.48,6.39,7.4,3.32,13.52,7.7,11.87,15.62Z"/><path class="cls-4" d="M248.78,469c-.14,2.6-5.04,6.9-11.49,6.56-5.36-.29-8.19-3.37-7.92-8.41l.72-14.41-.38-.02c-1.19-.06-2.96-.59-2.86-2.43,.1-1.9,3.15-4.01,5.73-5.67,2.42-1.5,4.99-2.83,6.61-2.74,1.36,.07,2.07,.98,1.98,2.66l-.2,3.85,6.07,.32c1.84,.1,2.4,.78,2.31,2.51-.09,1.74-.62,2.41-2.57,2.31l-6.07-.33-.62,11.65c-.15,2.82,.56,3.67,2.08,3.75,2.33,.12,3.68-1.71,5.09-1.63,.97,.05,1.59,.74,1.52,2.04Z"/><path class="cls-4" d="M282.82,468.29c.21,2.27-1.91,5.24-6.24,5.64-3.08,.28-5.47-.91-6.97-3.55-1.58,2.98-4.5,4.99-8.33,5.34-4.81,.44-8.91-2.07-9.36-7.09-.52-5.67,4.05-9.25,10.69-9.86,1.94-.18,3.92-.03,5.46,.21l-.3-3.29c-.26-2.75-.64-5.23-2.97-5.01-1.46,.13-2.41,1.64-3.4,3.2-.89,1.66-2.24,3.47-5.05,3.73-2.26,.21-3.63-1.03-3.77-2.54-.34-3.62,7.51-8.37,14.74-9.03,6.7-.62,10.57,2.4,11.13,8.51l.84,9.13c.22,2.38,.72,3.64,3.04,4.02,.39,.07,.46,.23,.49,.61Zm-13.96-3.78l-.15-1.67c-.7-.48-1.82-.87-3.12-.75-2.32,.22-3.59,1.8-3.37,4.18,.22,2.38,1.53,3.62,3.42,3.45,1.94-.18,3.53-1.85,3.22-5.2Z"/><path class="cls-4" d="M308.09,460.41c.59,2.53-2.91,8.03-9.19,9.51-5.23,1.23-8.8-.94-9.95-5.86l-3.34-14.03-.37,.09c-1.16,.27-3,.26-3.42-1.54-.43-1.85,1.9-4.74,3.92-7.05,1.9-2.11,4-4.11,5.58-4.48,1.32-.31,2.26,.36,2.64,2l.88,3.75,5.92-1.39c1.8-.42,2.53,.08,2.92,1.77,.4,1.69,.08,2.49-1.82,2.93l-5.92,1.39,2.66,11.35c.64,2.75,1.57,3.36,3.05,3.02,2.27-.53,3.05-2.66,4.43-2.99,.95-.22,1.74,.26,2.03,1.53Z"/><path class="cls-4" d="M335.58,447.97c.47,1.22,.44,2.97-.14,4.82-1,3.29-3.9,6.95-9.02,8.91-7.71,2.95-15.1-.44-18.02-8.1-3.16-8.26,.77-16.51,8.58-19.49,7.35-2.81,13.33,.54,14.94,4.74,.97,2.53,.07,4.74-2.72,5.8l-12.21,4.67c2.14,3.31,5.48,4.47,9.38,2.98,2.64-1.01,4.11-2.62,5.21-4.31,.46-.64,.93-1.23,1.54-1.46,1.01-.38,1.93,.02,2.47,1.44Zm-20.06-1.74l5.13-2.08c2.55-1.09,3.31-2.43,2.71-4-.72-1.88-2.71-2.97-5.04-2.08-2.94,1.12-3.95,4.41-2.8,8.16Z"/><path class="cls-4" d="M380.25,417.92c2.51,3.67,3.18,10.59,.49,12.43-.81,.55-1.72,.65-2.52,.35-1.35,2.44-3.35,4.99-6.35,7.05-8.46,5.8-21.14,3.7-27.58-5.69-6.63-9.67-4.09-21.8,5.22-28.18,3.27-2.24,6.53-3.23,9.39-3.48-.23-1.09,.08-2.09,.97-2.71,2.55-1.75,7.4,1.58,10.01,5.38,2.33,3.4,1.53,5.59,.37,6.39-1.7,1.17-3.28,.41-5.85-.86-3.87-1.89-8.33-1.98-11.63,.21-4.52,3.1-4.44,8.3-1.07,13.22,4.73,6.89,13.87,10.16,19.6,6.23,2.46-1.68,4.06-4.16,4.16-7.46,.07-1.63-.28-3.49,.97-4.35,1.25-.86,2.69-.2,3.83,1.45Z"/><path class="cls-4" d="M381.37,413.06c-6.25-6.19-5.72-15.36,1.35-22.49,6.38-6.43,14.93-6.52,20.91-.59,6.28,6.23,5.59,15.4-1.32,22.38-6.46,6.51-14.98,6.63-20.94,.71Zm18.48-12.25c-3.97-3.93-12.89-8.11-15.83-5.15-1.53,1.54-1.36,4,1.14,6.48,4.01,3.97,12.82,8.19,15.83,5.14,1.57-1.58,1.29-4.07-1.14-6.48Z"/><path class="cls-4" d="M394.38,368.78c3.13,2.33,6.54,.2,9.61,.25l2.14-2.87c1.17-1.57,2.09-1.63,3.44-.62,1.39,1.04,1.6,1.93,.43,3.5l-1.68,2.26,10.05,7.48c1.87,1.39,2.89,1.48,3.6,.98,1.5-1.11,2.54-1.69,3.63-.88,2.01,1.49,.13,5.1-3.17,9.54-3.34,4.48-6.05,6.85-7.97,5.43-1.09-.81-.87-2-.39-3.47,.28-.74-.47-1.91-1.91-2.98l-10.18-7.57-1.04,1.39c-1.23,1.65-2.15,1.71-3.54,.67-1.35-1-1.56-1.9-.33-3.56l.71-.96c-1.81-.2-4.09-.14-6.44-1.88-3.65-2.72-4.53-8.17-.55-13.53,3.37-4.52,8.21-5.86,11.43-3.46,2.05,1.52,2.37,3.72,.98,5.59-1.36,1.83-3.24,1.99-5.02,1.47-1.7-.45-3.61-1.33-4.68,.11-.74,1-.3,2.21,.88,3.09Z"/><path class="cls-4" d="M405.56,352.15c3.37,1.98,6.52-.51,9.59-.8l1.81-3.09c.99-1.68,1.9-1.84,3.35-.99,1.5,.88,1.8,1.75,.82,3.44l-1.43,2.44,10.81,6.34c2.02,1.18,3.04,1.15,3.69,.59,1.37-1.27,2.34-1.96,3.51-1.27,2.16,1.26,.68,5.06-2.12,9.83-2.83,4.81-5.27,7.47-7.33,6.27-1.17-.68-1.09-1.9-.77-3.41,.2-.77-.68-1.84-2.22-2.75l-10.95-6.43-.88,1.5c-1.04,1.78-1.95,1.93-3.45,1.05-1.45-.85-1.75-1.72-.71-3.5l.6-1.03c-1.82,0-4.08,.31-6.61-1.18-3.93-2.3-5.4-7.63-2.02-13.39,2.85-4.87,7.53-6.72,10.99-4.69,2.2,1.29,2.76,3.44,1.58,5.46-1.15,1.97-3,2.33-4.83,2.01-1.74-.26-3.73-.93-4.64,.61-.64,1.07-.05,2.23,1.21,2.98Z"/><path class="cls-4" d="M445.21,327.43c1.2,.51,2.44,1.75,3.37,3.44,1.66,3.01,2.29,7.64,.14,12.68-3.23,7.58-10.81,10.55-18.34,7.34-8.14-3.47-11.33-12.02-8.06-19.7,3.08-7.24,9.64-9.22,13.79-7.45,2.49,1.06,3.45,3.24,2.29,5.99l-5.12,12.03c3.86,.76,7.02-.84,8.66-4.68,1.1-2.59,.97-4.77,.51-6.74-.15-.77-.24-1.52,.01-2.12,.43-1,1.35-1.37,2.75-.77Zm-15.18,13.22l2.07-5.14c.99-2.58,.56-4.07-.99-4.73-1.85-.79-4.02-.12-4.99,2.18-1.23,2.9,.43,5.9,3.92,7.68Z"/><path class="cls-4" d="M453.33,297.03c1.26,.32,2.68,1.36,3.85,2.89,2.1,2.72,3.42,7.2,2.06,12.51-2.05,7.98-9.08,12.06-17.02,10.03-8.57-2.19-13.02-10.17-10.95-18.26,1.95-7.62,8.14-10.57,12.5-9.45,2.63,.67,3.9,2.68,3.16,5.57l-3.25,12.66c3.93,.17,6.81-1.89,7.85-5.94,.7-2.73,.24-4.87-.51-6.74-.26-.74-.46-1.46-.3-2.09,.27-1.05,1.13-1.56,2.6-1.18Zm-13.01,15.37l1.27-5.39c.58-2.7-.07-4.1-1.7-4.52-1.94-.49-3.99,.49-4.61,2.91-.78,3.04,1.32,5.77,5.04,7Z"/></g><g><path class="cls-4" d="M435.77,158.6c1.39-.44,2.39,.54,3.27,1.86,.76,.95,1.88,.88,3.54,.92,7.29,.17,13.24,4.88,16,13.5,3.78,11.83-1.49,22.75-12.76,26.35-11.78,3.77-22.31-2.83-25.72-13.47-1.27-3.98-1.25-7.64-.68-10.49-1.18-.14-2.06-.76-2.41-1.85-.92-2.89,3.19-6.43,7.57-7.83,3.51-1.13,5.41-.2,6,1.66,.48,1.5-.5,3.41-2.05,5.33-2.5,2.85-4.05,6.93-2.71,11.12,1.73,5.43,7,7.27,13.56,5.17,8.27-2.64,14.14-10.1,12.09-16.51-1.11-3.46-3.73-4.89-6.37-4.06-1.55,.5-2.06,1.57-1.84,3.16,.27,1.73,.16,3.54-1.44,4.05-2.32,.75-4.2-2.81-6.02-8.5-1.82-5.68-2.35-9.67-.03-10.41Z"/><path class="cls-4" d="M436.45,155.86c-7.66,4.31-16.33,1.29-21.25-7.46-4.44-7.89-2.17-16.15,5.16-20.26,7.71-4.33,16.34-1.16,21.15,7.39,4.49,7.99,2.27,16.21-5.06,20.33Zm-6.71-21.12c-4.87,2.74-11.33,10.17-9.28,13.81,1.06,1.89,3.47,2.4,6.54,.68,4.92-2.77,11.39-10.07,9.28-13.81-1.09-1.94-3.56-2.35-6.54-.68Z"/><path class="cls-4" d="M427.2,119.1c-1.04,.79-2.06,.34-3.05-.34-.64-.4-1.7,.27-3.17,1.38l-16.84,12.73c-1.47,1.11-2.59,2.43-2.39,3.23,.59,1.6,.59,2.75-.32,3.44-.65,.49-1.44,.61-2.51,.19-2.9-1.14-6.73-4.5-8.11-6.32-1.73-2.29-.44-3.54,2.33-5.64,1.51-1.14,3.41-2.51,5.57-4.15l15.84-11.97c1.77-1.34,2.4-1.95,2.22-2.64-.4-1.25-.54-2.24,.5-3.03,1.95-1.47,4.57,.83,7.45,4.64,2.95,3.89,4.37,7.04,2.46,8.47Z"/><path class="cls-4" d="M389.76,79.14c.58-.58,1.3-.77,2.38-.53,2.91,.62,6.87,3.11,8.33,4.57,1.95,1.96,.84,3.37-1.58,5.79l-.42,.42c3.61-1.22,7.91-.53,10.93,2.5,4.53,4.53,3.64,11.86-2.27,17.77-6.68,6.67-14.47,6.55-19.96,1.06-2.03-2.03-3.06-4.22-3.45-6.14l-2.11,2.11c-1.3,1.31-1.99,2.99-1.53,3.91,.8,1.42,.96,2.73,.19,3.49-.65,.65-1.42,.8-2.57,.5-3.14-.92-7.59-3.84-9.25-5.49-2.03-2.04-.91-3.45,1.54-5.91,1.35-1.34,3-2.91,4.88-4.79l13.06-13.04c1.18-1.19,2.15-2.53,1.8-3.18-.69-1.31-.69-2.31,.04-3.03Zm1.83,17.34c-4.61,4.68-4.99,7.67-3.12,9.55,2.11,2.11,5.3,1.31,9.79-3.18,4.61-4.6,5.15-7.74,3.27-9.63-1.92-1.92-5.29-1.38-9.94,3.26Z"/><path class="cls-4" d="M361.16,64.18c.75-1.06,2.23-2,4.08-2.54,3.3-.98,7.95-.58,12.41,2.6,6.71,4.79,7.97,12.83,3.2,19.49-5.14,7.2-14.18,8.47-20.98,3.61-6.4-4.57-6.91-11.4-4.29-15.07,1.57-2.2,3.91-2.67,6.34-.94l10.63,7.61c1.58-3.61,.69-7.04-2.7-9.46-2.29-1.64-4.45-1.98-6.47-1.96-.78-.03-1.53-.1-2.06-.47-.88-.63-1.04-1.61-.16-2.85Zm9.63,17.68l-4.57-3.13c-2.32-1.52-3.85-1.42-4.83-.05-1.17,1.63-.98,3.9,1.04,5.35,2.56,1.83,5.86,.85,8.35-2.17Z"/><path class="cls-4" d="M328.37,40.94c1.06-2.19,4.5-1.32,8.74,.74,4.39,2.12,6.84,4.15,5.83,6.25-.57,1.17-1.61,1.21-2.65,1.12-.85,.14-1.49,1.33-2.2,2.79l-2.38,4.93c-2.41,4.98-2.19,7.13,.11,8.24,2.1,1.02,4.61,.18,7.12-4.87l2.34-4.83c.87-1.81,1.3-2.68,.88-3.43-.74-.84-1.38-1.63-.81-2.8,1.04-2.15,4.28-1.37,8.52,.69,4.39,2.12,7.04,4.25,6.01,6.39-.59,1.22-1.76,1.26-2.82,1.11-.85,0-1.47,1.16-2.2,2.67l-4.04,8.35c-.73,1.51-1.2,3.1-.66,3.6,1.13,1.03,1.46,1.97,1.01,2.9-.35,.74-.98,1.15-2.12,1.27-2.95,.38-7.75-.8-9.65-1.72-2.54-1.23-1.91-2.91-.42-5.98l.36-.74c-3.12,2.47-7.38,3.42-11.63,1.36-4.73-2.29-6.35-6.93-3.44-12.93l4.27-8.84c.9-1.86,1.3-2.69,.78-3.36-.86-.84-1.53-1.7-.94-2.93Z"/><path class="cls-4" d="M276.66,37.72c1.58-7.54,9.14-11.39,17.69-9.61,3.82,.8,6.93,2.61,9.03,4.27,.63-1.14,1.68-1.7,2.91-1.44,3.4,.71,5.13,6.5,4.13,11.28-.61,2.92-2.29,4.07-3.72,3.77-1.49-.31-2.04-1.65-3.02-4.12-1.46-3.63-4.89-7.12-9.24-8.02-3.66-.77-6.27,.57-6.82,3.17-.54,2.6,1.41,4.12,6.73,6.51,7.34,3.36,13.31,7.65,11.67,15.51-1.5,7.17-8.77,11.19-17.11,9.45-3.4-.71-5.97-2.19-7.62-3.59-.63,.92-1.65,1.54-2.87,1.28-3.29-.69-4.75-6.7-3.98-10.42,.49-2.33,2.18-3.53,3.61-3.23,1.59,.33,2.25,1.97,2.81,3.24,1.27,3.21,3.4,6.03,7.54,6.9,3.34,.7,6.09-.51,6.6-2.95,.54-2.6-1.52-4.14-6.48-6.39-7.4-3.32-13.52-7.7-11.87-15.62Z"/><path class="cls-4" d="M251.22,31c.14-2.6,5.04-6.9,11.49-6.56,5.36,.29,8.19,3.37,7.92,8.41l-.72,14.41,.38,.02c1.19,.06,2.96,.59,2.86,2.43-.1,1.9-3.15,4.01-5.73,5.67-2.42,1.5-4.99,2.83-6.61,2.74-1.36-.07-2.07-.98-1.98-2.66l.2-3.85-6.07-.32c-1.84-.1-2.4-.78-2.31-2.51,.09-1.74,.62-2.41,2.57-2.31l6.07,.33,.62-11.65c.15-2.82-.56-3.67-2.08-3.75-2.33-.12-3.68,1.71-5.09,1.63-.97-.05-1.59-.74-1.52-2.04Z"/><path class="cls-4" d="M217.18,31.71c-.21-2.27,1.91-5.24,6.24-5.64,3.08-.28,5.47,.91,6.97,3.55,1.58-2.98,4.5-4.99,8.33-5.34,4.81-.44,8.91,2.07,9.36,7.09,.52,5.67-4.05,9.25-10.69,9.86-1.94,.18-3.92,.03-5.46-.21l.3,3.29c.26,2.75,.64,5.23,2.97,5.01,1.46-.13,2.41-1.64,3.4-3.2,.89-1.66,2.24-3.47,5.05-3.73,2.26-.21,3.63,1.03,3.77,2.54,.34,3.62-7.51,8.37-14.74,9.03-6.7,.62-10.57-2.4-11.13-8.51l-.84-9.13c-.22-2.38-.72-3.64-3.04-4.02-.39-.07-.46-.23-.49-.61Zm13.96,3.78l.15,1.67c.7,.48,1.82,.87,3.12,.75,2.32-.22,3.59-1.8,3.37-4.18-.22-2.38-1.53-3.62-3.42-3.45-1.94,.18-3.53,1.85-3.22,5.2Z"/><path class="cls-4" d="M191.91,39.59c-.59-2.53,2.91-8.03,9.19-9.51,5.23-1.23,8.8,.94,9.95,5.86l3.34,14.03,.37-.09c1.16-.27,3-.26,3.42,1.54,.43,1.85-1.9,4.74-3.92,7.05-1.9,2.11-4,4.11-5.58,4.48-1.32,.31-2.26-.36-2.64-2l-.88-3.75-5.92,1.39c-1.8,.42-2.53-.08-2.92-1.77-.4-1.69-.08-2.49,1.82-2.93l5.92-1.39-2.66-11.35c-.64-2.75-1.57-3.36-3.05-3.02-2.27,.53-3.05,2.66-4.43,2.99-.95,.22-1.74-.26-2.03-1.53Z"/><path class="cls-4" d="M164.42,52.03c-.47-1.22-.44-2.97,.14-4.82,1-3.29,3.9-6.95,9.02-8.91,7.71-2.95,15.1,.44,18.02,8.1,3.16,8.26-.77,16.51-8.58,19.49-7.35,2.81-13.33-.54-14.94-4.74-.97-2.53-.07-4.74,2.72-5.8l12.21-4.67c-2.14-3.31-5.48-4.47-9.38-2.98-2.64,1.01-4.11,2.62-5.21,4.31-.46,.64-.93,1.23-1.54,1.46-1.01,.38-1.93-.02-2.47-1.44Zm20.06,1.74l-5.13,2.08c-2.55,1.09-3.31,2.43-2.71,4,.72,1.88,2.71,2.97,5.04,2.08,2.94-1.12,3.95-4.41,2.8-8.16Z"/><path class="cls-4" d="M119.75,82.08c-2.51-3.67-3.18-10.59-.49-12.43,.81-.55,1.72-.65,2.52-.35,1.35-2.44,3.35-4.99,6.35-7.05,8.46-5.8,21.14-3.7,27.58,5.69,6.63,9.67,4.09,21.8-5.22,28.18-3.27,2.24-6.53,3.23-9.39,3.48,.23,1.09-.08,2.09-.97,2.71-2.55,1.75-7.4-1.58-10.01-5.38-2.33-3.4-1.53-5.59-.37-6.39,1.7-1.17,3.28-.41,5.85,.86,3.87,1.89,8.33,1.98,11.63-.21,4.52-3.1,4.44-8.3,1.07-13.22-4.73-6.89-13.87-10.16-19.6-6.23-2.46,1.68-4.06,4.16-4.16,7.46-.07,1.63,.28,3.49-.97,4.35-1.25,.86-2.69,.2-3.83-1.45Z"/><path class="cls-4" d="M118.63,86.94c6.25,6.19,5.72,15.36-1.35,22.49-6.38,6.43-14.93,6.52-20.91,.59-6.28-6.23-5.59-15.4,1.32-22.38,6.46-6.51,14.98-6.63,20.94-.71Zm-18.48,12.25c3.97,3.93,12.89,8.11,15.83,5.15,1.53-1.54,1.36-4-1.14-6.48-4.01-3.97-12.82-8.19-15.83-5.14-1.57,1.58-1.29,4.07,1.14,6.48Z"/><path class="cls-4" d="M105.62,131.22c-3.13-2.33-6.54-.2-9.61-.25l-2.14,2.87c-1.17,1.57-2.09,1.63-3.44,.62-1.39-1.04-1.6-1.93-.43-3.5l1.68-2.26-10.05-7.48c-1.87-1.39-2.89-1.48-3.6-.98-1.5,1.11-2.54,1.69-3.63,.88-2.01-1.49-.13-5.1,3.17-9.54,3.34-4.48,6.05-6.85,7.97-5.43,1.09,.81,.87,2,.39,3.47-.28,.74,.47,1.91,1.91,2.98l10.18,7.57,1.04-1.39c1.23-1.65,2.15-1.71,3.54-.67,1.35,1,1.56,1.9,.33,3.56l-.71,.96c1.81,.2,4.09,.14,6.44,1.88,3.65,2.72,4.53,8.17,.55,13.53-3.37,4.52-8.21,5.86-11.43,3.46-2.05-1.52-2.37-3.72-.98-5.59,1.36-1.83,3.24-1.99,5.02-1.47,1.7,.45,3.61,1.33,4.68-.11,.74-1,.3-2.21-.88-3.09Z"/><path class="cls-4" d="M94.44,147.85c-3.37-1.98-6.52,.51-9.59,.8l-1.81,3.09c-.99,1.68-1.9,1.84-3.35,.99-1.5-.88-1.8-1.75-.82-3.44l1.43-2.44-10.81-6.34c-2.02-1.18-3.04-1.15-3.69-.59-1.37,1.27-2.34,1.96-3.51,1.27-2.16-1.26-.68-5.06,2.12-9.83,2.83-4.81,5.27-7.47,7.33-6.27,1.17,.68,1.09,1.9,.77,3.41-.2,.77,.68,1.84,2.22,2.75l10.95,6.43,.88-1.5c1.04-1.78,1.95-1.93,3.45-1.05,1.45,.85,1.75,1.72,.71,3.5l-.6,1.03c1.82,0,4.08-.31,6.61,1.18,3.93,2.3,5.4,7.63,2.02,13.39-2.85,4.87-7.53,6.72-10.99,4.69-2.2-1.29-2.76-3.44-1.58-5.46,1.15-1.97,3-2.33,4.83-2.01,1.74,.26,3.73,.93,4.64-.61,.64-1.07,.05-2.23-1.21-2.98Z"/><path class="cls-4" d="M54.79,172.57c-1.2-.51-2.44-1.75-3.37-3.44-1.66-3.01-2.29-7.64-.14-12.68,3.23-7.58,10.81-10.55,18.34-7.34,8.14,3.47,11.33,12.02,8.06,19.7-3.08,7.24-9.64,9.22-13.79,7.45-2.49-1.06-3.45-3.24-2.29-5.99l5.12-12.03c-3.86-.76-7.02,.84-8.66,4.68-1.1,2.59-.97,4.77-.51,6.74,.15,.77,.24,1.52-.01,2.12-.43,1-1.35,1.37-2.75,.77Zm15.18-13.22l-2.07,5.14c-.99,2.58-.56,4.07,.99,4.73,1.85,.79,4.02,.12,4.99-2.18,1.23-2.9-.43-5.9-3.92-7.68Z"/><path class="cls-4" d="M46.67,202.97c-1.26-.32-2.68-1.36-3.85-2.89-2.1-2.72-3.42-7.2-2.06-12.51,2.05-7.98,9.08-12.06,17.02-10.03,8.57,2.19,13.02,10.17,10.95,18.26-1.95,7.62-8.14,10.57-12.5,9.45-2.63-.67-3.9-2.68-3.16-5.57l3.25-12.66c-3.93-.17-6.81,1.89-7.85,5.94-.7,2.73-.24,4.87,.51,6.74,.26,.74,.46,1.46,.3,2.09-.27,1.05-1.13,1.56-2.6,1.18Zm13.01-15.37l-1.27,5.39c-.58,2.7,.07,4.1,1.7,4.52,1.94,.49,3.99-.49,4.61-2.91,.78-3.04-1.32-5.77-5.04-7Z"/></g><circle class="cls-5" cx="92.2" cy="249.73" r="6.12"/><circle class="cls-5" cx="450.8" cy="249.67" r="7.63"/><g><g><polygon class="cls-4" points="388.97 250 338.47 273.72 370.36 319.51 314.75 314.75 319.51 370.36 273.72 338.47 250 388.97 226.28 338.47 180.49 370.36 185.25 314.75 129.64 319.51 161.53 273.72 111.03 250 161.53 226.28 129.64 180.49 185.25 185.25 180.49 129.64 226.28 161.53 250 111.03 273.72 161.53 319.51 129.64 314.75 185.25 370.36 180.49 338.47 226.28 388.97 250"/><polygon class="cls-2" points="388.97 250 338.47 273.72 370.36 319.51 314.75 314.75 319.51 370.36 273.72 338.47 250 388.97 226.28 338.47 180.49 370.36 185.25 314.75 129.64 319.51 161.53 273.72 111.03 250 161.53 226.28 129.64 180.49 185.25 185.25 180.49 129.64 226.28 161.53 250 111.03 273.72 161.53 319.51 129.64 314.75 185.25 370.36 180.49 338.47 226.28 388.97 250"/></g><circle class="cls-1" cx="250" cy="250" r="70.35"/><path class="cls-6" d="M320.77,224.84v7.43c0,17.2-13.62,31.6-30.81,31.9-14.95,.26-27.57-9.94-31.01-23.77-.19-.78-.91-1.32-1.72-1.32h-14.3c-.81,0-1.53,.54-1.72,1.32-3.44,13.83-16.06,24.03-31.01,23.77-17.19-.3-30.81-14.7-30.81-31.9v-7.43c0-1.38,1.12-2.5,2.5-2.5h57.75c1.38,0,2.5,1.12,2.5,2.5v1.58c0,.98,.8,1.78,1.78,1.78h12.33c.98,0,1.78-.8,1.78-1.78v-1.58c0-1.38,1.12-2.5,2.5-2.5h57.75c1.38,0,2.5,1.12,2.5,2.5Z"/><line class="cls-7" x1="198.21" y1="252.06" x2="220.8" y2="229.47"/><line class="cls-7" x1="214.11" y1="252.06" x2="224.98" y2="241.18"/><line class="cls-7" x1="277.88" y1="252.06" x2="300.47" y2="229.47"/><line class="cls-7" x1="293.78" y1="252.06" x2="304.65" y2="241.18"/><ellipse class="cls-3" cx="250.08" cy="266.26" rx="7.66" ry="5.92"/><path class="cls-2" d="M220.58,281.94s-.39,3.95-5.13,7.1"/><path class="cls-2" d="M278.19,281.94s.39,3.95,5.13,7.1"/><path class="cls-2" d="M219.1,285.49s12.33,12.82,30.68,12.82,29.89-12.82,29.89-12.82"/></g></svg>