<?xml version="1.0" encoding="UTF-8"?><svg id="Layer_1" xmlns="http://www.w3.org/2000/svg" viewBox="0 0 500 500"><defs><style>.cls-1{fill:#e88eae;}.cls-2{fill:#e5a22d;}.cls-3{fill:#124d51;}.cls-4{stroke:#f2ecdf;stroke-width:5.35px;}.cls-4,.cls-5{fill:none;stroke-linecap:round;stroke-linejoin:round;}.cls-6{fill:#f2ecdf;stroke-miterlimit:10;}.cls-6,.cls-5{stroke:#124d51;stroke-width:8.91px;}</style></defs><g><polygon class="cls-2" points="462.63 250 385.36 286.3 434.16 356.36 349.07 349.07 356.36 434.16 286.3 385.36 250 462.63 213.7 385.36 143.64 434.16 150.93 349.07 65.84 356.36 114.64 286.3 37.37 250 114.64 213.7 65.84 143.64 150.93 150.93 143.64 65.84 213.7 114.64 250 37.37 286.3 114.64 356.36 65.84 349.07 150.93 434.16 143.64 385.36 213.7 462.63 250"/><polygon class="cls-5" points="462.63 250 385.36 286.3 434.16 356.36 349.07 349.07 356.36 434.16 286.3 385.36 250 462.63 213.7 385.36 143.64 434.16 150.93 349.07 65.84 356.36 114.64 286.3 37.37 250 114.64 213.7 65.84 143.64 150.93 150.93 143.64 65.84 213.7 114.64 250 37.37 286.3 114.64 356.36 65.84 349.07 150.93 434.16 143.64 385.36 213.7 462.63 250"/></g><circle class="cls-6" cx="250" cy="250" r="107.64"/><path class="cls-3" d="M358.28,211.51v11.37c0,26.31-20.83,48.35-47.14,48.81-22.88,.4-42.19-15.21-47.45-36.37-.3-1.2-1.4-2.02-2.63-2.02h-21.89c-1.23,0-2.34,.82-2.63,2.02-5.26,21.17-24.57,36.77-47.45,36.37-26.31-.46-47.14-22.5-47.14-48.81v-11.37c0-2.11,1.71-3.82,3.82-3.82h88.37c2.11,0,3.82,1.71,3.82,3.82v2.41c0,1.51,1.22,2.73,2.73,2.73h18.86c1.51,0,2.73-1.22,2.73-2.73v-2.41c0-2.11,1.71-3.82,3.82-3.82h88.37c2.11,0,3.82,1.71,3.82,3.82Z"/><line class="cls-4" x1="170.76" y1="253.15" x2="205.32" y2="218.59"/><line class="cls-4" x1="195.08" y1="253.15" x2="211.72" y2="236.51"/><line class="cls-4" x1="292.66" y1="253.15" x2="327.22" y2="218.59"/><line class="cls-4" x1="316.98" y1="253.15" x2="333.62" y2="236.51"/><ellipse class="cls-1" cx="250.12" cy="274.88" rx="11.73" ry="9.06"/><path class="cls-5" d="M204.98,298.86s-.6,6.04-7.85,10.87"/><path class="cls-5" d="M293.13,298.86s.6,6.04,7.85,10.87"/><path class="cls-5" d="M202.72,304.3s18.87,19.62,46.94,19.62,45.74-19.62,45.74-19.62"/></svg>